<?xml version="1.0" standalone="no"?>
<!DOCTYPE svg PUBLIC "-//W3C//DTD SVG 20010904//EN"
 "http://www.w3.org/TR/2001/REC-SVG-20010904/DTD/svg10.dtd">
<svg version="1.0" xmlns="http://www.w3.org/2000/svg"
 width="4000.000000pt" height="4000.000000pt" viewBox="0 0 4000.000000 4000.000000"
 preserveAspectRatio="xMidYMid meet">

<g transform="translate(0.000000,4000.000000) scale(0.100000,-0.100000)"
fill="#000000" stroke="none">
<path d="M11333 31989 c-185 -20 -358 -104 -499 -244 -130 -128 -204 -263
-239 -431 -13 -65 -15 -1352 -15 -11314 0 -9962 2 -11249 15 -11314 35 -168
109 -303 239 -431 144 -143 314 -224 505 -243 167 -17 317 10 468 84 84 41
481 356 4143 3286 l4050 3240 4050 -3240 c4456 -3565 4120 -3305 4323 -3352
99 -23 264 -28 355 -11 166 33 311 111 438 236 130 128 204 263 239 431 13 65
15 1352 15 11314 0 9962 -2 11249 -15 11314 -35 168 -109 303 -239 431 -147
146 -312 224 -516 245 -126 12 -17193 12 -17317 -1z"/>
</g>
</svg>
